<mxfile host="app.diagrams.net" modified="2023-07-05T22:01:41.651Z" agent="Mozilla/5.0 (Windows NT 10.0; Win64; x64) AppleWebKit/537.36 (KHTML, like Gecko) Chrome/114.0.0.0 Safari/537.36 Edg/114.0.1823.67" etag="l-hLQBIp4s47ANf_MsuF" version="21.6.1" type="github">
  <diagram id="C5RBs43oDa-KdzZeNtuy" name="Page-1">
    <mxGraphModel dx="1667" dy="928" grid="1" gridSize="10" guides="1" tooltips="1" connect="1" arrows="1" fold="1" page="1" pageScale="1" pageWidth="827" pageHeight="1169" math="0" shadow="0">
      <root>
        <mxCell id="WIyWlLk6GJQsqaUBKTNV-0" />
        <mxCell id="WIyWlLk6GJQsqaUBKTNV-1" parent="WIyWlLk6GJQsqaUBKTNV-0" />
        <mxCell id="WIyWlLk6GJQsqaUBKTNV-2" value="" style="rounded=0;html=1;jettySize=auto;orthogonalLoop=1;fontSize=11;endArrow=block;endFill=0;endSize=8;strokeWidth=1;shadow=0;labelBackgroundColor=none;edgeStyle=orthogonalEdgeStyle;noEdgeStyle=1;orthogonal=1;" parent="WIyWlLk6GJQsqaUBKTNV-1" source="WIyWlLk6GJQsqaUBKTNV-3" target="WIyWlLk6GJQsqaUBKTNV-6" edge="1">
          <mxGeometry relative="1" as="geometry" />
        </mxCell>
        <mxCell id="WIyWlLk6GJQsqaUBKTNV-3" value="Resolving image reference*" style="rounded=1;whiteSpace=wrap;html=1;fontSize=12;glass=0;strokeWidth=1;shadow=0;" parent="WIyWlLk6GJQsqaUBKTNV-1" vertex="1">
          <mxGeometry x="70" y="40.00185185185185" width="120" height="40" as="geometry" />
        </mxCell>
        <mxCell id="budjNbjbFSjOa-AknYmb-16" value="" style="edgeStyle=orthogonalEdgeStyle;rounded=0;orthogonalLoop=1;jettySize=auto;html=1;" parent="WIyWlLk6GJQsqaUBKTNV-1" source="WIyWlLk6GJQsqaUBKTNV-6" target="WIyWlLk6GJQsqaUBKTNV-7" edge="1">
          <mxGeometry relative="1" as="geometry" />
        </mxCell>
        <mxCell id="budjNbjbFSjOa-AknYmb-17" value="No" style="edgeLabel;html=1;align=center;verticalAlign=middle;resizable=0;points=[];" parent="budjNbjbFSjOa-AknYmb-16" vertex="1" connectable="0">
          <mxGeometry x="-0.1204" relative="1" as="geometry">
            <mxPoint as="offset" />
          </mxGeometry>
        </mxCell>
        <mxCell id="budjNbjbFSjOa-AknYmb-18" value="" style="edgeStyle=orthogonalEdgeStyle;rounded=0;orthogonalLoop=1;jettySize=auto;html=1;" parent="WIyWlLk6GJQsqaUBKTNV-1" source="WIyWlLk6GJQsqaUBKTNV-6" target="WIyWlLk6GJQsqaUBKTNV-10" edge="1">
          <mxGeometry relative="1" as="geometry">
            <Array as="points">
              <mxPoint x="130" y="220" />
              <mxPoint x="130" y="220" />
            </Array>
          </mxGeometry>
        </mxCell>
        <mxCell id="budjNbjbFSjOa-AknYmb-19" value="Yes" style="edgeLabel;html=1;align=center;verticalAlign=middle;resizable=0;points=[];" parent="budjNbjbFSjOa-AknYmb-18" vertex="1" connectable="0">
          <mxGeometry x="-0.1678" y="-1" relative="1" as="geometry">
            <mxPoint as="offset" />
          </mxGeometry>
        </mxCell>
        <mxCell id="WIyWlLk6GJQsqaUBKTNV-6" value="Does the reference have a host?" style="rhombus;whiteSpace=wrap;html=1;shadow=0;fontFamily=Helvetica;fontSize=12;align=center;strokeWidth=1;spacing=6;spacingTop=-4;" parent="WIyWlLk6GJQsqaUBKTNV-1" vertex="1">
          <mxGeometry x="80" y="130.00185185185185" width="100" height="80" as="geometry" />
        </mxCell>
        <mxCell id="WIyWlLk6GJQsqaUBKTNV-7" value="Check locally tagged images/public sources*" style="rounded=1;whiteSpace=wrap;html=1;fontSize=12;glass=0;strokeWidth=1;shadow=0;" parent="WIyWlLk6GJQsqaUBKTNV-1" vertex="1">
          <mxGeometry x="300" y="150.00185185185197" width="120" height="40" as="geometry" />
        </mxCell>
        <mxCell id="budjNbjbFSjOa-AknYmb-12" value="" style="edgeStyle=orthogonalEdgeStyle;rounded=0;orthogonalLoop=1;jettySize=auto;html=1;" parent="WIyWlLk6GJQsqaUBKTNV-1" source="WIyWlLk6GJQsqaUBKTNV-10" target="budjNbjbFSjOa-AknYmb-1" edge="1">
          <mxGeometry relative="1" as="geometry" />
        </mxCell>
        <mxCell id="budjNbjbFSjOa-AknYmb-13" value="No" style="edgeLabel;html=1;align=center;verticalAlign=middle;resizable=0;points=[];" parent="budjNbjbFSjOa-AknYmb-12" vertex="1" connectable="0">
          <mxGeometry x="-0.1567" relative="1" as="geometry">
            <mxPoint as="offset" />
          </mxGeometry>
        </mxCell>
        <mxCell id="budjNbjbFSjOa-AknYmb-14" value="" style="edgeStyle=orthogonalEdgeStyle;rounded=0;orthogonalLoop=1;jettySize=auto;html=1;" parent="WIyWlLk6GJQsqaUBKTNV-1" source="WIyWlLk6GJQsqaUBKTNV-10" target="WIyWlLk6GJQsqaUBKTNV-12" edge="1">
          <mxGeometry relative="1" as="geometry" />
        </mxCell>
        <mxCell id="budjNbjbFSjOa-AknYmb-15" value="Yes" style="edgeLabel;html=1;align=center;verticalAlign=middle;resizable=0;points=[];" parent="budjNbjbFSjOa-AknYmb-14" vertex="1" connectable="0">
          <mxGeometry x="-0.0622" y="2" relative="1" as="geometry">
            <mxPoint as="offset" />
          </mxGeometry>
        </mxCell>
        <mxCell id="WIyWlLk6GJQsqaUBKTNV-10" value="Does the host have a hosts.toml?&lt;br&gt;" style="rhombus;whiteSpace=wrap;html=1;shadow=0;fontFamily=Helvetica;fontSize=12;align=center;strokeWidth=1;spacing=6;spacingTop=-4;" parent="WIyWlLk6GJQsqaUBKTNV-1" vertex="1">
          <mxGeometry x="40" y="250.00185185185182" width="180" height="140" as="geometry" />
        </mxCell>
        <mxCell id="4c9EMRg4X2gtyG1UVgjn-38" style="edgeStyle=orthogonalEdgeStyle;rounded=0;orthogonalLoop=1;jettySize=auto;html=1;exitX=0.5;exitY=1;exitDx=0;exitDy=0;entryX=0;entryY=0.5;entryDx=0;entryDy=0;entryPerimeter=0;" edge="1" parent="WIyWlLk6GJQsqaUBKTNV-1" source="WIyWlLk6GJQsqaUBKTNV-12" target="4c9EMRg4X2gtyG1UVgjn-37">
          <mxGeometry relative="1" as="geometry" />
        </mxCell>
        <mxCell id="WIyWlLk6GJQsqaUBKTNV-12" value="Direct request to hosts in file" style="rounded=1;whiteSpace=wrap;html=1;fontSize=12;glass=0;strokeWidth=1;shadow=0;" parent="WIyWlLk6GJQsqaUBKTNV-1" vertex="1">
          <mxGeometry x="300" y="300.0018518518518" width="120" height="40" as="geometry" />
        </mxCell>
        <mxCell id="budjNbjbFSjOa-AknYmb-6" value="" style="edgeStyle=orthogonalEdgeStyle;rounded=0;orthogonalLoop=1;jettySize=auto;html=1;" parent="WIyWlLk6GJQsqaUBKTNV-1" source="budjNbjbFSjOa-AknYmb-1" target="budjNbjbFSjOa-AknYmb-5" edge="1">
          <mxGeometry relative="1" as="geometry" />
        </mxCell>
        <mxCell id="budjNbjbFSjOa-AknYmb-10" value="Yes&lt;br&gt;" style="edgeLabel;html=1;align=center;verticalAlign=middle;resizable=0;points=[];" parent="budjNbjbFSjOa-AknYmb-6" vertex="1" connectable="0">
          <mxGeometry x="-0.1667" y="1" relative="1" as="geometry">
            <mxPoint as="offset" />
          </mxGeometry>
        </mxCell>
        <object label="" No="" id="budjNbjbFSjOa-AknYmb-8">
          <mxCell style="edgeStyle=orthogonalEdgeStyle;rounded=0;orthogonalLoop=1;jettySize=auto;html=1;" parent="WIyWlLk6GJQsqaUBKTNV-1" source="budjNbjbFSjOa-AknYmb-1" target="budjNbjbFSjOa-AknYmb-7" edge="1">
            <mxGeometry relative="1" as="geometry" />
          </mxCell>
        </object>
        <mxCell id="budjNbjbFSjOa-AknYmb-11" value="No" style="edgeLabel;html=1;align=center;verticalAlign=middle;resizable=0;points=[];" parent="budjNbjbFSjOa-AknYmb-8" vertex="1" connectable="0">
          <mxGeometry x="-0.3627" relative="1" as="geometry">
            <mxPoint as="offset" />
          </mxGeometry>
        </mxCell>
        <mxCell id="budjNbjbFSjOa-AknYmb-1" value="&lt;font style=&quot;font-size: 12px;&quot;&gt;Is there a _default/hosts.toml file?&lt;/font&gt;" style="strokeWidth=2;html=1;shape=mxgraph.flowchart.decision;whiteSpace=wrap;" parent="WIyWlLk6GJQsqaUBKTNV-1" vertex="1">
          <mxGeometry x="30" y="440.15" width="200" height="150" as="geometry" />
        </mxCell>
        <mxCell id="4c9EMRg4X2gtyG1UVgjn-39" style="edgeStyle=orthogonalEdgeStyle;rounded=0;orthogonalLoop=1;jettySize=auto;html=1;exitX=0.5;exitY=1;exitDx=0;exitDy=0;entryX=0;entryY=0.5;entryDx=0;entryDy=0;entryPerimeter=0;" edge="1" parent="WIyWlLk6GJQsqaUBKTNV-1" source="budjNbjbFSjOa-AknYmb-5" target="4c9EMRg4X2gtyG1UVgjn-37">
          <mxGeometry relative="1" as="geometry">
            <Array as="points">
              <mxPoint x="360" y="650" />
              <mxPoint x="660" y="650" />
              <mxPoint x="660" y="440" />
            </Array>
          </mxGeometry>
        </mxCell>
        <mxCell id="budjNbjbFSjOa-AknYmb-5" value="Direct request to default host in file" style="rounded=1;whiteSpace=wrap;html=1;strokeWidth=2;" parent="WIyWlLk6GJQsqaUBKTNV-1" vertex="1">
          <mxGeometry x="300" y="485.15" width="120" height="60" as="geometry" />
        </mxCell>
        <mxCell id="budjNbjbFSjOa-AknYmb-7" value="Send the request to host in image reference" style="whiteSpace=wrap;html=1;strokeWidth=2;" parent="WIyWlLk6GJQsqaUBKTNV-1" vertex="1">
          <mxGeometry x="70" y="640.15" width="120" height="60" as="geometry" />
        </mxCell>
        <mxCell id="budjNbjbFSjOa-AknYmb-22" value="&lt;h1&gt;Registry Request Redirection Flowchart&lt;/h1&gt;&lt;p&gt;This flowchart depicts a summary of how a request to a registry is redirected when a containerd based client uses the `--hosts-dir` argument to pass in a directory of `hosts.toml` files, which configures the registry client when sending requests.&lt;/p&gt;" style="text;html=1;strokeColor=none;fillColor=none;spacing=5;spacingTop=-20;whiteSpace=wrap;overflow=hidden;rounded=0;" parent="WIyWlLk6GJQsqaUBKTNV-1" vertex="1">
          <mxGeometry x="530" y="10" width="250" height="250" as="geometry" />
        </mxCell>
        <mxCell id="budjNbjbFSjOa-AknYmb-23" value="*ex. example.azurecr.io/hello-world:latest" style="text;html=1;strokeColor=none;fillColor=none;align=left;verticalAlign=middle;whiteSpace=wrap;rounded=0;fontSize=10;" parent="WIyWlLk6GJQsqaUBKTNV-1" vertex="1">
          <mxGeometry x="200" y="32.5" width="230" height="55" as="geometry" />
        </mxCell>
        <mxCell id="budjNbjbFSjOa-AknYmb-24" value="&lt;font style=&quot;font-size: 10px;&quot;&gt;*Checks docker.io, quay.io, etc&lt;/font&gt;" style="text;html=1;strokeColor=none;fillColor=none;align=center;verticalAlign=middle;whiteSpace=wrap;rounded=0;" parent="WIyWlLk6GJQsqaUBKTNV-1" vertex="1">
          <mxGeometry x="295" y="200" width="130" height="30" as="geometry" />
        </mxCell>
        <mxCell id="budjNbjbFSjOa-AknYmb-25" value="&lt;h1&gt;&lt;font style=&quot;font-size: 13px;&quot;&gt;hosts.toml&lt;/font&gt;&lt;/h1&gt;&lt;p&gt;&lt;font style=&quot;font-size: 10px;&quot;&gt;The hosts.toml file has settings for configuring the subsequent request. A single file can specify multiple hosts to try, and specify other settings such as tls, additional headers to append, and the scope of requests to redirect.&lt;/font&gt;&lt;/p&gt;" style="text;html=1;strokeColor=none;fillColor=none;spacing=5;spacingTop=-20;whiteSpace=wrap;overflow=hidden;rounded=0;" parent="WIyWlLk6GJQsqaUBKTNV-1" vertex="1">
          <mxGeometry x="440" y="260" width="190" height="150" as="geometry" />
        </mxCell>
        <mxCell id="budjNbjbFSjOa-AknYmb-26" value="&lt;h1&gt;&lt;span style=&quot;font-size: 13px;&quot;&gt;_default/hosts.toml&lt;/span&gt;&lt;/h1&gt;&lt;p&gt;&lt;font style=&quot;font-size: 10px;&quot;&gt;If such a file exists, it acts as the catch all in case any of the previous hosts fail or do not exist.&lt;/font&gt;&lt;/p&gt;" style="text;html=1;strokeColor=none;fillColor=none;spacing=5;spacingTop=-20;whiteSpace=wrap;overflow=hidden;rounded=0;" parent="WIyWlLk6GJQsqaUBKTNV-1" vertex="1">
          <mxGeometry x="440" y="460.22999999999996" width="190" height="109.85" as="geometry" />
        </mxCell>
        <mxCell id="4c9EMRg4X2gtyG1UVgjn-13" value="" style="edgeStyle=orthogonalEdgeStyle;rounded=0;orthogonalLoop=1;jettySize=auto;html=1;" edge="1" parent="WIyWlLk6GJQsqaUBKTNV-1" source="4c9EMRg4X2gtyG1UVgjn-8" target="4c9EMRg4X2gtyG1UVgjn-12">
          <mxGeometry relative="1" as="geometry" />
        </mxCell>
        <mxCell id="4c9EMRg4X2gtyG1UVgjn-15" value="No" style="edgeLabel;html=1;align=center;verticalAlign=middle;resizable=0;points=[];" vertex="1" connectable="0" parent="4c9EMRg4X2gtyG1UVgjn-13">
          <mxGeometry x="-0.4679" y="1" relative="1" as="geometry">
            <mxPoint as="offset" />
          </mxGeometry>
        </mxCell>
        <mxCell id="4c9EMRg4X2gtyG1UVgjn-19" value="" style="edgeStyle=orthogonalEdgeStyle;rounded=0;orthogonalLoop=1;jettySize=auto;html=1;" edge="1" parent="WIyWlLk6GJQsqaUBKTNV-1" source="4c9EMRg4X2gtyG1UVgjn-8" target="4c9EMRg4X2gtyG1UVgjn-18">
          <mxGeometry relative="1" as="geometry" />
        </mxCell>
        <mxCell id="4c9EMRg4X2gtyG1UVgjn-23" value="Yes" style="edgeLabel;html=1;align=center;verticalAlign=middle;resizable=0;points=[];" vertex="1" connectable="0" parent="4c9EMRg4X2gtyG1UVgjn-19">
          <mxGeometry x="-0.1789" relative="1" as="geometry">
            <mxPoint as="offset" />
          </mxGeometry>
        </mxCell>
        <mxCell id="4c9EMRg4X2gtyG1UVgjn-8" value="Is the mirror enabled for this host?" style="strokeWidth=2;shape=mxgraph.flowchart.decision;autosize=0;overflow=width;fixedWidth=1;whiteSpace=wrap;" vertex="1" parent="WIyWlLk6GJQsqaUBKTNV-1">
          <mxGeometry x="880" y="380" width="110" height="120" as="geometry" />
        </mxCell>
        <mxCell id="4c9EMRg4X2gtyG1UVgjn-30" value="" style="edgeStyle=orthogonalEdgeStyle;rounded=0;orthogonalLoop=1;jettySize=auto;html=1;" edge="1" parent="WIyWlLk6GJQsqaUBKTNV-1" source="4c9EMRg4X2gtyG1UVgjn-12" target="4c9EMRg4X2gtyG1UVgjn-29">
          <mxGeometry relative="1" as="geometry" />
        </mxCell>
        <mxCell id="4c9EMRg4X2gtyG1UVgjn-36" value="No" style="edgeLabel;html=1;align=center;verticalAlign=middle;resizable=0;points=[];" vertex="1" connectable="0" parent="4c9EMRg4X2gtyG1UVgjn-30">
          <mxGeometry x="0.081" relative="1" as="geometry">
            <mxPoint as="offset" />
          </mxGeometry>
        </mxCell>
        <mxCell id="4c9EMRg4X2gtyG1UVgjn-32" value="" style="edgeStyle=orthogonalEdgeStyle;rounded=0;orthogonalLoop=1;jettySize=auto;html=1;" edge="1" parent="WIyWlLk6GJQsqaUBKTNV-1" source="4c9EMRg4X2gtyG1UVgjn-12" target="4c9EMRg4X2gtyG1UVgjn-31">
          <mxGeometry relative="1" as="geometry" />
        </mxCell>
        <mxCell id="4c9EMRg4X2gtyG1UVgjn-35" value="Yes" style="edgeLabel;html=1;align=center;verticalAlign=middle;resizable=0;points=[];" vertex="1" connectable="0" parent="4c9EMRg4X2gtyG1UVgjn-32">
          <mxGeometry x="0.042" y="3" relative="1" as="geometry">
            <mxPoint as="offset" />
          </mxGeometry>
        </mxCell>
        <mxCell id="4c9EMRg4X2gtyG1UVgjn-12" value="Does suffix match x-ms-enable-if-suffix?" style="strokeWidth=2;shape=mxgraph.flowchart.decision;autosize=0;overflow=block;fixedWidth=1;align=center;labelPadding=0;perimeter=rhombusPerimeter;verticalAlign=middle;horizontal=1;labelPosition=center;verticalLabelPosition=middle;textDirection=ltr;whiteSpace=wrap;spacingTop=4;spacingLeft=0;spacing=11;" vertex="1" parent="WIyWlLk6GJQsqaUBKTNV-1">
          <mxGeometry x="852.5" y="590.1500000000001" width="165" height="129.78" as="geometry" />
        </mxCell>
        <mxCell id="4c9EMRg4X2gtyG1UVgjn-21" value="" style="edgeStyle=orthogonalEdgeStyle;rounded=0;orthogonalLoop=1;jettySize=auto;html=1;" edge="1" parent="WIyWlLk6GJQsqaUBKTNV-1" source="4c9EMRg4X2gtyG1UVgjn-18" target="4c9EMRg4X2gtyG1UVgjn-20">
          <mxGeometry relative="1" as="geometry" />
        </mxCell>
        <mxCell id="4c9EMRg4X2gtyG1UVgjn-22" value="Yes" style="edgeLabel;html=1;align=center;verticalAlign=middle;resizable=0;points=[];" vertex="1" connectable="0" parent="4c9EMRg4X2gtyG1UVgjn-21">
          <mxGeometry x="-0.1726" y="4" relative="1" as="geometry">
            <mxPoint as="offset" />
          </mxGeometry>
        </mxCell>
        <mxCell id="4c9EMRg4X2gtyG1UVgjn-25" value="" style="edgeStyle=orthogonalEdgeStyle;rounded=0;orthogonalLoop=1;jettySize=auto;html=1;" edge="1" parent="WIyWlLk6GJQsqaUBKTNV-1" source="4c9EMRg4X2gtyG1UVgjn-18" target="4c9EMRg4X2gtyG1UVgjn-24">
          <mxGeometry relative="1" as="geometry">
            <Array as="points">
              <mxPoint x="1125" y="590" />
            </Array>
          </mxGeometry>
        </mxCell>
        <mxCell id="4c9EMRg4X2gtyG1UVgjn-26" value="No" style="edgeLabel;html=1;align=center;verticalAlign=middle;resizable=0;points=[];" vertex="1" connectable="0" parent="4c9EMRg4X2gtyG1UVgjn-25">
          <mxGeometry x="-0.252" y="3" relative="1" as="geometry">
            <mxPoint as="offset" />
          </mxGeometry>
        </mxCell>
        <mxCell id="4c9EMRg4X2gtyG1UVgjn-18" value="Is the image streamable?" style="strokeWidth=2;shape=mxgraph.flowchart.decision;autosize=0;overflow=width;fixedWidth=1;whiteSpace=wrap;" vertex="1" parent="WIyWlLk6GJQsqaUBKTNV-1">
          <mxGeometry x="1070" y="380" width="110" height="120" as="geometry" />
        </mxCell>
        <mxCell id="4c9EMRg4X2gtyG1UVgjn-20" value="Resolve the image reference to the digest of the streamable artifact" style="whiteSpace=wrap;html=1;strokeWidth=2;" vertex="1" parent="WIyWlLk6GJQsqaUBKTNV-1">
          <mxGeometry x="1255" y="410" width="120" height="60" as="geometry" />
        </mxCell>
        <mxCell id="4c9EMRg4X2gtyG1UVgjn-24" value="Return `503` so that the client can choose the next step*" style="whiteSpace=wrap;html=1;strokeWidth=2;" vertex="1" parent="WIyWlLk6GJQsqaUBKTNV-1">
          <mxGeometry x="1255" y="560" width="120" height="60" as="geometry" />
        </mxCell>
        <mxCell id="4c9EMRg4X2gtyG1UVgjn-27" value="&lt;h1&gt;Image Resolution&lt;/h1&gt;&lt;p&gt;The first step in pulling an image is image resolution. This is when an image/repo are resolved to a digest. This is the only point when it is possible to negotiate which digest to return, since pulling an image by digest must always return the image with that digest.&lt;/p&gt;" style="text;html=1;strokeColor=none;fillColor=none;spacing=5;spacingTop=-20;whiteSpace=wrap;overflow=hidden;rounded=0;" vertex="1" parent="WIyWlLk6GJQsqaUBKTNV-1">
          <mxGeometry x="1400" y="345" width="190" height="205" as="geometry" />
        </mxCell>
        <mxCell id="4c9EMRg4X2gtyG1UVgjn-28" value="* This status code allows the client to fail fast and try the next host." style="text;html=1;strokeColor=none;fillColor=none;align=left;verticalAlign=middle;whiteSpace=wrap;rounded=0;" vertex="1" parent="WIyWlLk6GJQsqaUBKTNV-1">
          <mxGeometry x="1260" y="630" width="110" height="45.04" as="geometry" />
        </mxCell>
        <mxCell id="4c9EMRg4X2gtyG1UVgjn-47" style="edgeStyle=orthogonalEdgeStyle;rounded=0;orthogonalLoop=1;jettySize=auto;html=1;exitX=0;exitY=0.5;exitDx=0;exitDy=0;entryX=0.5;entryY=1;entryDx=0;entryDy=0;dashed=1;" edge="1" parent="WIyWlLk6GJQsqaUBKTNV-1" source="4c9EMRg4X2gtyG1UVgjn-29" target="4c9EMRg4X2gtyG1UVgjn-42">
          <mxGeometry relative="1" as="geometry">
            <Array as="points">
              <mxPoint x="680" y="860" />
              <mxPoint x="680" y="780" />
              <mxPoint x="745" y="780" />
            </Array>
          </mxGeometry>
        </mxCell>
        <mxCell id="4c9EMRg4X2gtyG1UVgjn-50" value="&lt;div style=&quot;text-align: justify;&quot;&gt;Subsequent&amp;nbsp;&lt;/div&gt;&lt;div style=&quot;text-align: justify;&quot;&gt;requests will end up&lt;/div&gt;&lt;div style=&quot;text-align: justify;&quot;&gt;going here&lt;/div&gt;" style="edgeLabel;html=1;align=right;verticalAlign=middle;resizable=0;points=[];" vertex="1" connectable="0" parent="4c9EMRg4X2gtyG1UVgjn-47">
          <mxGeometry x="-0.2833" y="-1" relative="1" as="geometry">
            <mxPoint as="offset" />
          </mxGeometry>
        </mxCell>
        <mxCell id="4c9EMRg4X2gtyG1UVgjn-51" style="edgeStyle=orthogonalEdgeStyle;rounded=0;orthogonalLoop=1;jettySize=auto;html=1;endArrow=none;endFill=0;" edge="1" parent="WIyWlLk6GJQsqaUBKTNV-1" source="4c9EMRg4X2gtyG1UVgjn-29">
          <mxGeometry relative="1" as="geometry">
            <mxPoint x="1250" y="590" as="targetPoint" />
            <Array as="points">
              <mxPoint x="825" y="990" />
              <mxPoint x="1230" y="990" />
              <mxPoint x="1230" y="590" />
            </Array>
          </mxGeometry>
        </mxCell>
        <mxCell id="4c9EMRg4X2gtyG1UVgjn-52" value="Fail fast" style="edgeLabel;html=1;align=center;verticalAlign=middle;resizable=0;points=[];" vertex="1" connectable="0" parent="4c9EMRg4X2gtyG1UVgjn-51">
          <mxGeometry x="-0.203" relative="1" as="geometry">
            <mxPoint x="-70" as="offset" />
          </mxGeometry>
        </mxCell>
        <mxCell id="4c9EMRg4X2gtyG1UVgjn-29" value="Create a hosts.toml that points to the host w/ no overrides" style="whiteSpace=wrap;html=1;strokeWidth=2;spacingTop=4;spacingLeft=0;spacing=11;" vertex="1" parent="WIyWlLk6GJQsqaUBKTNV-1">
          <mxGeometry x="747" y="810" width="155" height="100" as="geometry" />
        </mxCell>
        <mxCell id="4c9EMRg4X2gtyG1UVgjn-33" style="edgeStyle=orthogonalEdgeStyle;rounded=0;orthogonalLoop=1;jettySize=auto;html=1;exitX=1;exitY=0.5;exitDx=0;exitDy=0;entryX=0;entryY=0.5;entryDx=0;entryDy=0;entryPerimeter=0;" edge="1" parent="WIyWlLk6GJQsqaUBKTNV-1" source="4c9EMRg4X2gtyG1UVgjn-31" target="4c9EMRg4X2gtyG1UVgjn-18">
          <mxGeometry relative="1" as="geometry">
            <Array as="points">
              <mxPoint x="1140" y="860" />
              <mxPoint x="1140" y="655" />
              <mxPoint x="1050" y="655" />
              <mxPoint x="1050" y="440" />
            </Array>
          </mxGeometry>
        </mxCell>
        <mxCell id="4c9EMRg4X2gtyG1UVgjn-34" value="Continue to proxy" style="edgeLabel;html=1;align=center;verticalAlign=middle;resizable=0;points=[];" vertex="1" connectable="0" parent="4c9EMRg4X2gtyG1UVgjn-33">
          <mxGeometry x="-0.6193" y="-1" relative="1" as="geometry">
            <mxPoint y="-34" as="offset" />
          </mxGeometry>
        </mxCell>
        <mxCell id="4c9EMRg4X2gtyG1UVgjn-31" value="Create a hosts.toml for this tenant" style="whiteSpace=wrap;html=1;strokeWidth=2;spacingTop=4;spacingLeft=0;spacing=11;" vertex="1" parent="WIyWlLk6GJQsqaUBKTNV-1">
          <mxGeometry x="960" y="810" width="150" height="100" as="geometry" />
        </mxCell>
        <mxCell id="4c9EMRg4X2gtyG1UVgjn-40" style="edgeStyle=orthogonalEdgeStyle;rounded=0;orthogonalLoop=1;jettySize=auto;html=1;exitX=1;exitY=0.5;exitDx=0;exitDy=0;exitPerimeter=0;entryX=0;entryY=0.5;entryDx=0;entryDy=0;entryPerimeter=0;" edge="1" parent="WIyWlLk6GJQsqaUBKTNV-1" source="4c9EMRg4X2gtyG1UVgjn-37" target="4c9EMRg4X2gtyG1UVgjn-8">
          <mxGeometry relative="1" as="geometry" />
        </mxCell>
        <mxCell id="4c9EMRg4X2gtyG1UVgjn-41" value="Yes" style="edgeLabel;html=1;align=center;verticalAlign=middle;resizable=0;points=[];" vertex="1" connectable="0" parent="4c9EMRg4X2gtyG1UVgjn-40">
          <mxGeometry x="-0.183" y="-1" relative="1" as="geometry">
            <mxPoint as="offset" />
          </mxGeometry>
        </mxCell>
        <mxCell id="4c9EMRg4X2gtyG1UVgjn-43" value="" style="edgeStyle=orthogonalEdgeStyle;rounded=0;orthogonalLoop=1;jettySize=auto;html=1;" edge="1" parent="WIyWlLk6GJQsqaUBKTNV-1" source="4c9EMRg4X2gtyG1UVgjn-37" target="4c9EMRg4X2gtyG1UVgjn-42">
          <mxGeometry relative="1" as="geometry" />
        </mxCell>
        <mxCell id="4c9EMRg4X2gtyG1UVgjn-44" value="No" style="edgeLabel;html=1;align=center;verticalAlign=middle;resizable=0;points=[];" vertex="1" connectable="0" parent="4c9EMRg4X2gtyG1UVgjn-43">
          <mxGeometry x="0.0737" y="1" relative="1" as="geometry">
            <mxPoint as="offset" />
          </mxGeometry>
        </mxCell>
        <mxCell id="4c9EMRg4X2gtyG1UVgjn-37" value="Is the host the mirror proxy?" style="strokeWidth=2;html=1;shape=mxgraph.flowchart.decision;whiteSpace=wrap;" vertex="1" parent="WIyWlLk6GJQsqaUBKTNV-1">
          <mxGeometry x="690" y="380" width="110" height="120" as="geometry" />
        </mxCell>
        <mxCell id="4c9EMRg4X2gtyG1UVgjn-42" value="Continue sending request to configured host" style="whiteSpace=wrap;html=1;strokeWidth=2;" vertex="1" parent="WIyWlLk6GJQsqaUBKTNV-1">
          <mxGeometry x="685" y="630" width="120" height="60" as="geometry" />
        </mxCell>
      </root>
    </mxGraphModel>
  </diagram>
</mxfile>
